HIERARCHY
ROOT Hips
{
	OFFSET 0.00000 0.00000 0.00000
	CHANNELS 6 Xposition Yposition Zposition Zrotation Yrotation Xrotation 
	JOINT LHipJoint
	{
		OFFSET 0 0 0
		CHANNELS 3 Zrotation Yrotation Xrotation
		JOINT LeftHip
		{
			OFFSET 1.36337 -1.57426 1.11036
			CHANNELS 3 Zrotation Yrotation Xrotation
			JOINT LeftKnee
			{
				OFFSET 2.38468 -6.55187 0.00000
				CHANNELS 3 Zrotation Yrotation Xrotation
				JOINT LeftAnkle
				{
					OFFSET 2.37166 -6.51609 0.00000
					CHANNELS 3 Zrotation Yrotation Xrotation
					JOINT LeftToe
					{
						OFFSET 0.29078 -0.79891 2.01393
						CHANNELS 3 Zrotation Yrotation Xrotation
						End Site
						{
							OFFSET 0.00000 -0.00000 1.07924
						}
					}
				}
			}
		}
	}
	JOINT RHipJoint
	{
		OFFSET 0 0 0
		CHANNELS 3 Zrotation Yrotation Xrotation
		JOINT RightHip
		{
			OFFSET -1.36349 -1.57426 1.11036
			CHANNELS 3 Zrotation Yrotation Xrotation
			JOINT RightKnee
			{
				OFFSET -2.29562 -6.30717 0.00000
				CHANNELS 3 Zrotation Yrotation Xrotation
				JOINT RightAnkle
				{
					OFFSET -2.40985 -6.62100 0.00000
					CHANNELS 3 Zrotation Yrotation Xrotation
					JOINT RightToe
					{
						OFFSET -0.23197 -0.63733 1.92232
						CHANNELS 3 Zrotation Yrotation Xrotation
						End Site
						{
							OFFSET -0.00000 -0.00000 1.01562
						}
					}
				}
			}
		}
	}
	JOINT lowerback
	{
		OFFSET 0 0 0
		CHANNELS 3 Zrotation Yrotation Xrotation
		JOINT Chest
		{
			OFFSET -0.08565 2.03602 -0.24562
			CHANNELS 3 Zrotation Yrotation Xrotation
			JOINT Chest2
			{
				OFFSET -0.00036 2.05693 0.00216
				CHANNELS 3 Zrotation Yrotation Xrotation
				JOINT lowerneck
				{
					OFFSET 0 0 0
					CHANNELS 3 Zrotation Yrotation Xrotation
					JOINT Neck
					{
						OFFSET -0.03664 1.69515 0.31789
						CHANNELS 3 Zrotation Yrotation Xrotation
						JOINT Head
						{
							OFFSET 0.00932 1.70181 -0.46013
							CHANNELS 3 Zrotation Yrotation Xrotation
							End Site
							{
								OFFSET 0.01243 1.77620 -0.19377
							}
						}
					}
				}
				JOINT LeftCollar
				{
					OFFSET 0 0 0
					CHANNELS 3 Zrotation Yrotation Xrotation
					JOINT LeftShoulder
					{
						OFFSET 3.74344 0.81315 -0.36647
CHANNELS 3 Zrotation Xrotation Yrotation
						JOINT LeftElbow
						{
OFFSET 0 -4.971850 -0.000000
CHANNELS 3 Zrotation Xrotation Yrotation
							JOINT LeftWrist
							{
OFFSET 0 -3.358110 0.000000
CHANNELS 3 Zrotation Xrotation Yrotation
								JOINT lhand
								{
									OFFSET 0 0 0
CHANNELS 3 Zrotation Xrotation Yrotation
									JOINT LFingers
									{
OFFSET 0 -0.622780 0.000000
CHANNELS 3 Zrotation Xrotation Yrotation
										End Site
										{
OFFSET 0 -0.502100 0.000000
										}
									}
								}
								JOINT LThumb
								{
OFFSET 0 0.000000 0.000000
CHANNELS 3 Zrotation Xrotation Yrotation
									End Site
									{
OFFSET 0 -0.509760 0.509760
									}
								}
							}
						}
					}
				}
				JOINT RightCollar
				{
					OFFSET 0 0 0
					CHANNELS 3 Zrotation Yrotation Xrotation
					JOINT RightShoulder
					{
						OFFSET -3.75385 0.50666 -0.06525
CHANNELS 3 Zrotation Xrotation Yrotation
						JOINT RightElbow
						{
OFFSET 0 -4.964930 -0.000000
CHANNELS 3 Zrotation Xrotation Yrotation
							JOINT RightWrist
							{
OFFSET 0 -3.349290 0.000000
CHANNELS 3 Zrotation Xrotation Yrotation
								JOINT rhand
								{
									OFFSET 0 0 0
CHANNELS 3 Zrotation Xrotation Yrotation
									JOINT RFingers
									{
OFFSET 0 -0.638040 0.000000
CHANNELS 3 Zrotation Xrotation Yrotation
										End Site
										{
OFFSET 0 -0.514410 0.000000
										}
									}
								}
								JOINT RThumb
								{
OFFSET 0 0.000000 0.000000
CHANNELS 3 Zrotation Xrotation Yrotation
									End Site
									{
OFFSET 0 -0.522260 0.522260
									}
								}
							}
						}
					}
				}
			}
		}
	}
}
MOTION
Frames: 11
Frame Time: 0.008333333333333333
-4.428249 14.488550 0.712761 133.146457 77.104118 144.414087 0.000000 0.000000 0.000000 -14.135938 6.667250 -58.286785 10.288930 17.568956 60.449367 -0.292476 18.238238 -23.169776 0.204954 -2.904590 -8.013987 0.000000 0.000000 0.000000 -0.339482 -1.659069 -53.796647 -15.169341 -19.431049 75.746227 -2.531656 1.431071 -29.745547 -0.012601 0.712757 -1.958897 -7.706932 3.168254 53.591476 0.025725 1.506458 7.383443 2.640067 1.635805 -12.717002 -7.854948 -5.390678 -31.834693 5.050757 -5.157644 17.928389 2.192436 -2.206645 11.317859 0.000000 0.000000 0.000000 33.920060 -41.551429 -36.640019 36.387097 -45.777536 15.799249 21.362803 -28.399854 10.817836 0.000000 0.000000 0.000000 -7.125000 0.000000 0.000000 -4.027512 18.401347 -2.556666 0.000000 0.000000 0.000000 -16.838980 -42.586339 28.568352 -37.992668 -46.834553 -16.960257 -19.512404 -4.804275 27.521372 0.000000 0.000000 0.000000 7.125000 0.000000 0.000000 12.241868 58.491756 -4.082638
-4.449156 14.482128 0.879558 131.468386 77.094889 142.959404 0.000000 0.000000 0.000000 -13.825256 6.881684 -58.196251 10.023519 17.422927 59.566798 -0.305528 18.397387 -23.294868 0.241053 -3.155709 -8.712955 0.000000 0.000000 0.000000 0.035271 -1.305132 -54.416185 -15.268471 -19.454575 76.044091 -2.584216 1.641347 -30.005217 -0.002155 0.284823 -0.782655 -7.701722 3.125542 52.858485 0.052024 1.502574 7.489759 2.696177 1.615781 -12.515355 -7.727991 -5.336967 -32.458572 4.657903 -5.029528 19.232679 2.049297 -2.191240 11.900056 0.000000 0.000000 0.000000 33.565348 -41.387478 -36.819811 36.632914 -45.943553 15.975756 21.479725 -28.736377 11.093481 0.000000 0.000000 0.000000 -7.125000 0.000000 0.000000 -3.953068 18.097823 -2.535728 0.000000 0.000000 0.000000 -16.729922 -42.714794 28.608065 -37.896903 -46.773141 -16.890502 -20.293573 -4.408675 27.361213 0.000000 0.000000 0.000000 7.125000 0.000000 0.000000 11.309422 58.508449 -3.768758
-4.476321 14.479511 1.030187 129.734477 76.938974 141.372190 0.000000 0.000000 0.000000 -13.725006 7.039632 -58.046145 9.757805 17.271391 58.675875 -0.284239 17.938250 -22.774354 0.177650 -2.713481 -7.482003 0.000000 0.000000 0.000000 0.216024 -1.002344 -54.900576 -15.349861 -19.473451 76.288191 -2.607043 1.710171 -30.123492 -0.000205 -0.090623 0.248913 -7.569308 2.908737 52.232451 0.012433 1.345915 7.575076 2.688630 1.532933 -12.337325 -7.242325 -5.115440 -33.115151 3.730674 -4.676757 20.835482 1.685421 -2.127909 12.579754 0.000000 0.000000 0.000000 33.115029 -41.079840 -36.940684 36.861570 -46.096548 16.140266 22.032863 -28.743601 11.189194 0.000000 0.000000 0.000000 -7.125000 0.000000 0.000000 -3.567332 17.947858 -2.298932 0.000000 0.000000 0.000000 -16.934313 -43.069772 28.647898 -37.586495 -46.573076 -16.664685 -20.230524 -4.390266 28.176112 0.000000 0.000000 0.000000 7.125000 0.000000 0.000000 11.836284 59.309168 -4.173605
-4.506359 14.466437 1.170789 128.101795 76.704564 139.790467 0.000000 0.000000 0.000000 -13.707546 7.050523 -57.808425 9.510758 17.125363 57.840265 -0.384308 18.206046 -22.183529 0.250745 -3.221918 -8.897345 0.000000 0.000000 0.000000 0.311160 -0.707737 -55.304587 -15.430499 -19.491804 76.530210 -2.618443 1.409348 -30.270489 -0.000127 -0.083127 0.228404 -7.323399 2.616907 51.943342 0.027864 1.143765 7.589240 2.698988 1.433369 -12.282829 -7.610004 -5.215208 -32.918873 3.600426 -4.625867 21.426254 1.707213 -2.160968 12.787895 0.000000 0.000000 0.000000 32.461530 -40.841939 -37.127374 36.908153 -46.127607 16.173778 22.430455 -28.954579 11.266877 0.000000 0.000000 0.000000 -7.125000 0.000000 0.000000 -3.290912 17.829268 -2.128819 0.000000 0.000000 0.000000 -16.603655 -42.559563 28.726413 -38.345065 -47.057893 -17.217875 -20.333471 -4.122924 27.996040 0.000000 0.000000 0.000000 7.125000 0.000000 0.000000 11.619854 59.153176 -4.052631
-4.534179 14.450418 1.305098 127.550484 77.099466 139.022751 0.000000 0.000000 0.000000 -12.932877 7.492706 -57.464153 9.328933 17.014694 57.220834 -0.366962 17.752504 -21.609610 0.250722 -3.215057 -8.878628 0.000000 0.000000 0.000000 1.100178 0.118600 -55.304479 -15.493911 -19.506010 76.720065 -2.674628 1.071493 -30.693582 -0.000032 -0.024383 0.066981 -6.745304 2.340725 51.660497 0.073404 1.149996 7.719940 2.495214 1.412886 -12.119525 -7.569964 -5.114663 -33.008339 3.314461 -4.422814 22.308751 1.632699 -2.114856 13.143001 0.000000 0.000000 0.000000 31.877146 -40.565897 -37.192418 36.970917 -46.169267 16.219069 22.446474 -28.675011 10.902376 0.000000 0.000000 0.000000 -7.125000 0.000000 0.000000 -3.266263 18.218930 -2.084703 0.000000 0.000000 0.000000 -16.303507 -42.597099 28.839576 -38.397522 -47.091199 -17.256216 -20.004727 -3.375785 29.507994 0.000000 0.000000 0.000000 7.125000 0.000000 0.000000 12.910235 60.576126 -4.956113
-4.548489 14.438751 1.442891 123.416970 77.299077 135.015287 0.000000 0.000000 0.000000 -13.086797 8.361136 -57.394344 9.124757 16.887168 56.520370 -0.362821 17.506779 -21.237894 0.485387 -4.463964 -12.386391 0.000000 0.000000 0.000000 1.121427 1.287997 -55.658538 -15.584905 -19.526040 76.992466 -2.708798 0.833331 -30.960778 -0.002047 -0.268299 0.737149 -7.182630 2.576488 50.965749 0.115734 1.243161 7.890331 2.723257 1.441248 -11.825090 -7.316432 -5.060316 -33.381133 2.813205 -4.289486 23.232011 1.419639 -2.110252 13.564461 0.000000 0.000000 0.000000 31.070459 -40.246293 -37.347582 37.067066 -46.232944 16.288489 23.038832 -28.867630 11.033359 0.000000 0.000000 0.000000 -7.125000 0.000000 0.000000 -2.854398 18.025472 -1.833134 0.000000 0.000000 0.000000 -16.257139 -42.912220 29.045960 -38.256077 -47.002036 -17.152633 -23.625852 -4.662727 20.986719 0.000000 0.000000 0.000000 7.125000 0.000000 0.000000 5.518879 52.528959 -1.373847
-4.577669 14.443776 1.568488 119.338204 76.787640 131.080477 0.000000 0.000000 0.000000 -13.728461 8.279299 -57.049913 8.899246 16.742318 55.740850 -0.357271 17.280213 -20.919919 0.539940 -4.707817 -13.077195 0.000000 0.000000 0.000000 0.470894 1.907133 -55.945565 -15.642280 -19.538524 77.164102 -2.735855 0.846696 -31.114360 -0.009688 -0.634855 1.744517 -7.702228 2.587438 50.591695 0.106840 1.002832 7.921539 3.073583 1.338704 -11.702142 -7.323819 -5.095312 -33.560675 2.630924 -4.262529 23.873467 1.353027 -2.128421 13.862477 0.000000 0.000000 0.000000 30.072644 -39.922536 -37.612784 37.029239 -46.207898 16.261108 23.500055 -28.996915 11.383471 0.000000 0.000000 0.000000 -7.125000 0.000000 0.000000 -2.545808 17.604593 -1.658223 0.000000 0.000000 0.000000 -16.564924 -43.164354 29.331690 -38.123843 -46.918106 -17.056016 -21.497978 -3.473102 27.316592 0.000000 0.000000 0.000000 7.125000 0.000000 0.000000 9.974372 58.737412 -3.371124
-4.600101 14.449881 1.660142 114.391085 77.176400 126.244114 0.000000 0.000000 0.000000 -13.561397 8.982215 -56.699000 8.727155 16.628838 55.141642 -0.195882 16.419100 -21.306861 0.481756 -4.450381 -12.347539 0.000000 0.000000 0.000000 0.538632 3.170409 -56.114418 -15.605486 -19.530551 77.054097 -2.735980 0.600082 -31.186186 -0.013227 -0.741990 2.039169 -7.726945 2.762164 50.050891 0.035158 1.207099 8.055150 2.932996 1.409607 -11.485457 -7.179389 -5.312474 -33.731117 2.565900 -4.608672 24.412196 1.228020 -2.272466 14.137830 0.000000 0.000000 0.000000 29.035732 -39.884688 -38.206009 36.895960 -46.119435 16.165000 24.044752 -29.181269 11.369065 0.000000 0.000000 0.000000 -7.125000 0.000000 0.000000 -2.163539 17.567914 -1.410640 0.000000 0.000000 0.000000 -16.794294 -43.412760 29.233597 -37.899974 -46.775260 -16.892682 -21.088301 -3.136739 29.147507 0.000000 0.000000 0.000000 7.125000 0.000000 0.000000 11.507459 60.474950 -4.402552
-4.627771 14.460463 1.734868 112.377447 77.199210 124.201504 0.000000 0.000000 0.000000 -13.385158 8.861489 -56.222846 8.575248 16.526444 54.609206 -0.120272 15.938457 -21.383355 0.472432 -4.408303 -12.228295 0.000000 0.000000 0.000000 0.706613 3.500349 -56.160825 -15.525648 -19.513095 76.815036 -2.717231 0.543014 -31.094098 -0.021557 -0.947444 2.604153 -7.391926 2.418077 49.771618 0.121135 0.980104 8.065907 2.987733 1.291158 -11.433001 -7.113975 -5.465408 -33.569479 2.546247 -4.867443 25.146735 1.156504 -2.380336 14.439263 0.000000 0.000000 0.000000 27.523967 -39.629627 -38.573423 36.626470 -45.939143 15.971015 24.379428 -28.731386 10.995196 0.000000 0.000000 0.000000 -7.125000 0.000000 0.000000 -1.910219 17.942223 -1.229635 0.000000 0.000000 0.000000 -16.943483 -43.427316 29.522787 -37.687577 -46.638602 -16.738119 -22.917179 -4.530526 22.603514 0.000000 0.000000 0.000000 7.125000 0.000000 0.000000 6.430803 54.186609 -1.467166
-4.651376 14.484617 1.806374 109.754025 77.102424 121.434412 0.000000 0.000000 0.000000 -13.341399 8.795264 -55.475609 8.404616 16.408821 54.007084 0.034680 15.095522 -21.791565 0.394507 -4.031438 -11.165258 0.000000 0.000000 0.000000 0.671755 3.867242 -55.993067 -15.394990 -19.483712 76.423570 -2.696093 0.617446 -30.948796 -0.021337 -0.943711 2.593854 -6.390076 1.812834 49.710112 -0.521274 0.735951 8.413896 1.934973 1.191058 -11.029793 -6.924274 -6.111899 -35.217120 3.414696 -6.096689 26.834126 1.193683 -2.715050 15.612411 0.000000 0.000000 0.000000 27.039305 -40.568840 -39.350022 36.264136 -45.693944 15.711276 24.624589 -28.675436 10.152753 0.000000 0.000000 0.000000 -7.125000 0.000000 0.000000 -1.696268 18.838332 -1.058171 0.000000 0.000000 0.000000 -16.658894 -43.785643 28.745789 -37.576453 -46.566638 -16.657351 -23.677026 -3.867429 23.089691 0.000000 0.000000 0.000000 7.125000 0.000000 0.000000 5.813043 54.847562 -1.416522
-4.667524 14.525526 1.860669 106.005883 77.353572 117.454454 0.000000 0.000000 0.000000 -13.126188 9.164918 -54.717041 8.253544 16.302554 53.470857 0.150439 14.129223 -21.682159 0.494815 -4.509715 -12.515351 0.000000 0.000000 0.000000 0.837882 4.810776 -55.453698 -15.212658 -19.441342 75.876339 -2.666562 0.495469 -30.812076 -0.026859 -1.057369 2.906590 -6.079143 1.614317 49.773185 -0.543360 0.637656 8.446139 1.811168 1.138350 -11.008044 -7.125805 -6.403420 -35.381292 4.256391 -6.742383 28.504031 1.449529 -2.843867 16.537416 0.000000 0.000000 0.000000 25.672412 -40.620042 -40.045343 35.774511 -45.357163 15.361952 25.397887 -29.425822 10.962946 0.000000 0.000000 0.000000 -7.125000 0.000000 0.000000 -1.193202 17.878176 -0.769083 0.000000 0.000000 0.000000 -16.683932 -43.736280 28.924801 -37.258286 -46.358597 -16.426789 -23.532206 -1.489695 29.587512 0.000000 0.000000 0.000000 7.125000 0.000000 0.000000 9.003607 61.534697 -3.629794
